/* XPM */
static char *peless[] = {
/* columns rows colors chars-per-pixel */
"48 48 9 1",
"  c black",
". c gray9",
"X c #191919",
"o c gray15",
"O c #2A2A2A",
"+ c #939393",
"@ c #A0A0A0",
"# c #CECECE",
"$ c None",
/* pixels */
"$$$$$$$$$$$$$$$$$$$$$$$$$$$$$$$$$$$$$$$$$$$$$$$$",
"$$$$$$$$$$$$$$$$$$$$$$$$$$$$$$$$$$$$$$$$$$$$$$$$",
"$$                                            $$",
"$$                                            $$",
"$$                                            $$",
"$$    ####################################    $$",
"$$   ##XXXXXXXXXXXX########################   $$",
"$$   ##X@@@@@@@@@@X########################   $$",
"$$   ##X@@@@@@@@@@X########################   $$",
"$$   ##X@@@@@@@@@@XXXXXXXX#################   $$",
"$$   XXX@@@@@@@@@@@@@@@@@XXXXXXXXXXXXXXXXXX   $$",
"$$   $$X@@@@@@@@@@@@@@@@@X$$$$$$$$$$$$$$$$$   $$",
"$$   $$X@@@@@@@@@@@@@@@@@X$$$$$$$$$$$$$$$$$   $$",
"$$   $$X@@@@@@@@@@@@@@@@@X$$$$$$$$$$$$$$$$$   $$",
"$$   $$X@@@@@@@@@@@@@@@@@X$$$$$$$$$$$$$$$$$   $$",
"$$   $$X@@@@@@@@@@@@@@@@@X$$$$$$$$$$$$$$$$$   $$",
"$$   $$X@@@@@@@@@@@@@@@@@X$$$$$$$$$$$$$$$$$   $$",
"$$   $$X@@@@@@@@@@@@@@@@@X$$$$$$$$$$$$$$$$$   $$",
"$$   $$X@@@@@@@@@@@@@@@@@X$$$$$$$$$$$$$$$$$   $$",
"$$   $$X@@@@@@@@@@@@@@@@@X$$$$$$$$$$$$$$$$$   $$",
"$$   $$X@@@@@@@@@@@@@@@@@X$$$$$$$$$$$$$$$$$   $$",
"$$   $$X@@@@@@@@@@@@@@@@@X$$$$$$$$$$$$$$$$$   $$",
"$$   $$X@@@@@@@@@@              $$$$$$$$$$$   $$",
"$$   $$X@@@@@@@@@@OOOOOo       $$$$$$$$$$$$   $$",
"$$   $$X@@@@@@@@@@@@@@@+  $$$$$$$$$$$$$$$$$   $$",
"$$   $$X@@@@@@@@@@@@@@@+  $$$$$$$$$$$$$$$$$   $$",
"$$   $$X@@@@@@@@@@@@@@@+  $$$$$$$$$$$$$$$$$   $$",
"$$   $$X@@@@@@@@@@@@@@@+  $$$$$$$$$$$$$$$$$   $$",
"$$   $$X@@@@@@@@@@@@@@@+  $$$$$$$$$$$$$$$$$   $$",
"$$   $$X@@@@@@@@@@@@@@@+  $$$$$$$$$$$$$$$$$   $$",
"$$   $$XXXXXXXXXXXXXXXX.  $$$$$$$$$$$$$$$$$   $$",
"$$   $$$$$$$$$$$$$$$$$$$  $$$$$$$$$$$$$$$$$   $$",
"$$   $$$$$$$$$$$$$$$$$$$  $$$$$$$$$$$$$$$$$   $$",
"$$   $$$$$$$$$$$$$$$$$$$  $$$$$$$$$$$$$$$$$   $$",
"$$   $$$$$$$$$$$$$$$$$$$  $$$$$$$$$$$$$$$$$   $$",
"$$   $$$$$$$$$$$$$$$$$$$  $$$$$$$$$$$$$$$$$   $$",
"$$   $$$$$$$$$$$$$$$$$$$  $$$$$$$$$$$$$$$$$   $$",
"$$   $$$$$$$$$$$$$$$$$$$  $$$$$$$$$$$$$$$$$   $$",
"$$   $$$$$$$$$$$$$$$$$$$$$$$$$$$$$$$$$$$$$$   $$",
"$$   $$$$$$$$$$$$$$$$$$$$$$$$$$$$$$$$$$$$$$   $$",
"$$   $$$$$$$$$$$$$$$$$$$$$$$$$$$$$$$$$$$$$$   $$",
"$$   $$$$$$$$$$$$$$$$$$$$$$$$$$$$$$$$$$$$$$   $$",
"$$   $$$$$$$$$$$$$$$$$$$$$$$$$$$$$$$$$$$$$$   $$",
"$$                                            $$",
"$$                                            $$",
"$$                                            $$",
"$$$$$$$$$$$$$$$$$$$$$$$$$$$$$$$$$$$$$$$$$$$$$$$$",
"$$$$$$$$$$$$$$$$$$$$$$$$$$$$$$$$$$$$$$$$$$$$$$$$"
};
